HIERARCHY
ROOT root
{
	OFFSET 0.000000 0.000000 0.000000
	CHANNELS 6 Xposition Yposition Zposition Zrotation Yrotation Xrotation
	JOINT lhip
	{
		OFFSET 0.058581 -0.082280 -0.017664
		CHANNELS 3 Zrotation Yrotation Xrotation
		JOINT lknee
		{
			OFFSET 0.043451 -0.386469 0.008037
			CHANNELS 3 Zrotation Yrotation Xrotation
			JOINT lankle
			{
				OFFSET -0.014790 -0.426874 -0.037428
				CHANNELS 3 Zrotation Yrotation Xrotation
				JOINT ltoe
				{
					OFFSET 0.041054 -0.060286 0.122042
					CHANNELS 3 Zrotation Yrotation Xrotation
					End Site
					{
						OFFSET 0.000000 0.000000 0.000000
					}
				}
			}
		}
	}
	JOINT rhip
	{
		OFFSET -0.060310 -0.090513 -0.013543
		CHANNELS 3 Zrotation Yrotation Xrotation
		JOINT rknee
		{
			OFFSET -0.043257 -0.383688 -0.004843
			CHANNELS 3 Zrotation Yrotation Xrotation
			JOINT rankle
			{
				OFFSET 0.019056 -0.420046 -0.034562
				CHANNELS 3 Zrotation Yrotation Xrotation
				JOINT rtoe
				{
					OFFSET -0.034840 -0.062106 0.130323
					CHANNELS 3 Zrotation Yrotation Xrotation
					End Site
					{
						OFFSET 0.000000 0.000000 0.000000
					}
				}
			}
		}
	}
	JOINT lowerback
	{
		OFFSET 0.004439 0.124404 -0.038385
		CHANNELS 3 Zrotation Yrotation Xrotation
		JOINT upperback
		{
			OFFSET 0.004488 0.137956 0.026820
			CHANNELS 3 Zrotation Yrotation Xrotation
			JOINT chest
			{
				OFFSET -0.002265 0.056032 0.002855
				CHANNELS 3 Zrotation Yrotation Xrotation
				JOINT lowerneck
				{
					OFFSET -0.013390 0.211636 -0.033468
					CHANNELS 3 Zrotation Yrotation Xrotation
					JOINT upperneck
					{
						OFFSET 0.010113 0.088937 0.050410
						CHANNELS 3 Zrotation Yrotation Xrotation
						End Site
						{
							OFFSET 0.000000 0.000000 0.000000
						}
					}
				}
				JOINT lclavicle
				{
					OFFSET 0.071702 0.114000 -0.018898
					CHANNELS 3 Zrotation Yrotation Xrotation
					JOINT lshoulder
					{
						OFFSET 0.122921 0.045205 -0.019046
						CHANNELS 3 Zrotation Yrotation Xrotation
						JOINT lelbow
						{
							OFFSET 0.255332 -0.015649 -0.022946
							CHANNELS 3 Zrotation Yrotation Xrotation
							JOINT lwrist
							{
								OFFSET 0.265709 0.012698 -0.007375
								CHANNELS 3 Zrotation Yrotation Xrotation
								End Site
								{
									OFFSET 0.000000 0.000000 0.000000
								}
							}
						}
					}
				}
				JOINT rclavicle
				{
					OFFSET -0.082954 0.112472 -0.023707
					CHANNELS 3 Zrotation Yrotation Xrotation
					JOINT rshoulder
					{
						OFFSET -0.113228 0.046853 -0.008472
						CHANNELS 3 Zrotation Yrotation Xrotation
						JOINT relbow
						{
							OFFSET -0.260127 -0.014369 -0.031269
							CHANNELS 3 Zrotation Yrotation Xrotation
							JOINT rwrist
							{
								OFFSET -0.269108 0.006794 -0.006027
								CHANNELS 3 Zrotation Yrotation Xrotation
								End Site
								{
									OFFSET 0.000000 0.000000 0.000000
								}
							}
						}
					}
				}
			}
		}
	}
}
MOTION
Frames: 11
Frame Time: 0.033333
-0.979132 0.628044 0.950299 73.367259 -4.650539 85.266585 8.549977 4.450327 -20.112448 -13.034354 -2.421754 55.835143 -2.101370 22.452365 -20.247443 0.000000 -0.000000 0.000000 4.361128 -4.608715 -9.964706 0.325957 4.841928 20.997881 -2.503648 -23.124028 -25.400725 0.000000 -0.000000 0.000000 1.010664 1.940063 21.251833 -1.921786 -0.571878 5.623184 1.986140 -0.900079 6.458612 -6.206929 7.432740 -4.563585 0.491678 3.236100 -32.769493 2.547947 5.462279 0.784449 -4.495077 16.556903 -14.188452 7.382253 3.386050 -9.473048 -3.452408 -15.131149 26.507946 -11.641811 0.488514 3.564783 -3.425167 -7.578982 -22.864900 -4.094037 -3.251662 1.772590 -3.257123 14.062031 15.907323 
-0.977364 0.627115 0.950584 73.233101 -4.689955 85.238906 8.571895 4.550300 -22.132960 -13.205021 -2.160509 55.401350 -2.110432 22.083238 -20.116346 0.000000 -0.000000 0.000000 4.479252 -4.612818 -9.864863 0.267809 5.020637 21.211511 -2.511088 -23.163803 -25.529602 0.000000 -0.000000 0.000000 1.130593 2.102716 22.105976 -2.174438 -0.393399 5.325392 2.274175 -0.761778 7.472653 -6.078134 8.064082 -4.950121 0.228178 2.453722 -35.365003 4.590296 7.460819 -1.079493 -2.621354 15.547683 -14.132529 8.929105 5.314439 -8.231343 1.667344 -17.856371 24.726586 -14.681189 -1.765713 2.633812 -3.735677 -8.184028 -23.260568 -5.857944 -4.470290 2.424234 -9.104082 14.828805 14.292578 
-0.975614 0.626760 0.950430 73.081177 -4.697537 85.083458 8.497222 4.866206 -23.672747 -13.910430 -2.721482 53.647571 -2.258538 21.742242 -19.712564 0.000000 -0.000000 0.000000 4.509507 -4.871571 -9.616141 0.452249 5.568441 21.299808 -2.391733 -23.365113 -25.673804 0.000000 -0.000000 0.000000 1.180747 2.140119 22.607798 -2.322490 -0.485926 6.512883 2.464508 -0.307573 7.480159 -6.393141 8.237305 -5.578762 0.039198 2.054030 -37.071971 5.280223 7.644906 -1.337047 -1.082210 16.459051 -14.922221 10.193982 6.003037 -8.816394 4.904919 -18.912446 23.533622 -16.095654 -2.476599 2.654617 -4.351640 -9.517760 -24.345518 -7.472612 -5.596033 1.275354 -13.013483 14.917373 13.389410 
-0.973021 0.625920 0.950345 73.050742 -4.588463 85.328312 8.331840 5.288761 -25.297726 -14.327630 -4.117244 49.344489 -2.563326 21.123442 -19.154639 0.000000 -0.000000 0.000000 4.580637 -5.172255 -9.754215 0.665220 5.695748 21.503296 -2.184311 -23.122716 -25.990688 0.000000 -0.000000 0.000000 1.297430 2.227139 23.676297 -2.429257 -0.581189 7.076549 2.672054 -0.213621 6.854373 -6.556193 8.866864 -7.000964 -0.183271 1.614827 -37.736187 4.824753 7.560242 -1.840923 0.153775 17.025588 -14.956463 10.901003 6.805756 -9.064611 6.798650 -19.553536 24.384976 -15.608812 -2.493968 3.174773 -4.490114 -11.192444 -24.348917 -8.364530 -5.473484 -0.436521 -15.499395 15.044109 12.345796 
-0.970821 0.625305 0.949623 73.023803 -4.527544 85.682261 8.340605 5.376697 -26.296947 -13.849670 -4.128875 46.148389 -2.391813 20.884821 -18.595233 0.000000 -0.000000 0.000000 4.587653 -5.278634 -10.217733 0.782336 5.554274 21.996312 -1.754226 -22.704044 -26.417933 0.000000 -0.000000 0.000000 1.297984 2.389894 24.352064 -2.417312 -0.585970 6.512908 2.864830 -0.241360 6.831587 -6.792824 9.105373 -7.383669 -0.262679 1.407322 -38.023677 4.600699 7.416279 -1.860699 -0.963112 17.023823 -14.725881 10.866153 6.535413 -8.796376 8.185868 -20.332679 23.534388 -15.129389 -2.476770 3.529144 -3.092670 -11.054421 -24.339566 -8.865411 -6.066484 -1.070880 -16.969583 15.225113 10.889113 
-0.967262 0.624074 0.948664 73.079337 -4.492165 86.023589 8.071237 5.683897 -26.734148 -12.627810 -4.780551 40.305082 -2.016351 21.478949 -18.186830 0.000000 -0.000000 0.000000 4.683621 -5.292155 -10.583390 0.776970 5.532945 22.599639 -1.917245 -23.224341 -27.032078 0.000000 -0.000000 0.000000 1.232158 2.388412 24.794958 -2.557761 -0.747612 8.130510 2.771223 -0.075949 5.474769 -6.430202 9.676353 -10.324372 -0.447492 1.155681 -36.755688 2.751425 6.527269 -1.535738 -1.584963 18.042508 -14.864559 9.136446 5.738417 -10.426917 6.653947 -20.513009 25.134979 -12.668813 -1.332680 4.280951 -0.506358 -12.106707 -23.109264 -8.741294 -5.511498 -2.673704 -16.157915 15.504940 9.781955 
-0.961497 0.623398 0.947559 73.277185 -4.273358 86.132668 8.032801 5.785022 -26.385815 -10.372603 -4.314636 33.713061 -1.857202 20.926026 -17.389503 0.000000 -0.000000 0.000000 4.765705 -4.964523 -10.352663 0.248612 4.072886 22.703401 -1.839801 -22.334689 -27.542532 0.000000 -0.000000 0.000000 1.102465 2.565008 25.220528 -2.169924 -0.659553 8.763462 3.326921 -0.294974 5.323840 -6.517150 11.730100 -11.922389 -2.286569 -0.333452 -36.308068 4.207934 7.010607 -0.942945 -12.071235 16.276596 -14.361133 11.694259 3.621543 -11.988704 6.352440 -18.319810 20.918002 -11.523364 -1.101362 4.269069 5.690804 -11.134499 -20.138285 -9.639371 -4.351118 -3.397016 -15.042149 14.049788 6.649838 
-0.954932 0.622559 0.946552 73.588961 -4.153124 86.617127 7.619311 5.883316 -26.347785 -8.255389 -3.757723 27.173801 -1.346137 21.233875 -17.117347 0.000000 -0.000000 0.000000 4.750695 -4.578955 -10.683945 0.043812 3.331936 23.311913 -1.659441 -21.896119 -28.277049 0.000000 -0.000000 0.000000 1.300104 2.401222 25.509533 -2.205259 -0.794566 9.696606 3.206117 -0.286983 4.015573 -6.760235 12.676977 -13.367832 -2.896363 -1.100282 -34.774079 2.522522 6.160523 -1.072356 -17.995641 15.087171 -14.176109 11.677039 2.923902 -13.759845 5.428317 -17.796950 19.908844 -9.453827 -0.073745 4.745202 12.953526 -9.990750 -18.281082 -9.736108 -3.556956 -4.790051 -14.162530 13.544331 3.684842 
-0.947492 0.621212 0.945156 74.073583 -3.880160 87.088702 7.136412 5.932456 -26.302636 -6.144382 -3.122427 21.031202 -0.770596 21.507657 -15.862385 0.000000 -0.000000 0.000000 4.959693 -4.289519 -10.925149 -0.502750 2.156018 23.799697 -2.096677 -21.851838 -28.743641 0.000000 -0.000000 0.000000 1.459320 2.072825 25.697628 -2.207738 -1.019178 10.851100 2.774272 -0.339615 2.605552 -6.419020 13.747394 -15.766513 -3.490194 -1.173894 -32.771279 1.065475 5.784367 -0.184357 -25.572024 13.329221 -13.720939 11.406642 1.198879 -16.438305 2.893209 -16.430262 18.678417 -5.890798 1.175255 5.303087 20.637720 -8.248792 -15.114254 -9.508930 -2.313018 -7.289853 -11.083492 12.777700 -0.431661 
-0.936838 0.619953 0.943280 75.035611 -3.440079 87.807185 6.126373 6.207400 -26.341261 -3.055858 -1.264721 13.754248 -0.475523 22.069573 -14.789443 0.000000 -0.000000 0.000000 5.368957 -3.752922 -11.095237 -1.367488 0.356932 23.959012 -2.768179 -22.026660 -29.469166 0.000000 -0.000000 0.000000 1.764895 1.681351 25.682876 -1.894999 -1.163417 11.470785 2.509973 -0.173390 1.835375 -6.625815 14.334073 -18.019536 -4.366700 -1.601091 -31.048565 -1.803923 5.848493 0.172132 -36.750580 9.320583 -11.518975 11.545703 -2.647852 -18.582640 2.688217 -15.945067 14.077223 -1.747162 1.789722 5.248269 32.824918 -5.320819 -11.182691 -10.540007 -0.211094 -10.678961 -11.021698 11.363187 -6.167439 
-0.927492 0.618940 0.941751 75.913868 -3.071010 88.645824 5.083044 6.495844 -27.296837 -0.796778 1.418805 10.124140 0.141273 22.031781 -13.518954 0.000000 -0.000000 0.000000 5.635697 -3.012567 -11.551248 -2.023454 -1.415547 24.403344 -2.931727 -21.404492 -30.271803 0.000000 -0.000000 0.000000 2.177837 1.580451 25.484980 -1.600982 -1.306747 11.625922 2.521153 0.116116 0.443216 -7.361005 14.656319 -17.731713 -4.503047 -1.831332 -30.119713 -4.822656 4.454152 1.290060 -45.327917 6.432844 -8.533586 10.566340 -5.313034 -20.503789 -2.001972 -16.405450 8.727340 1.440597 3.115829 5.800664 43.676667 -3.905964 -6.893120 -11.034606 0.432032 -12.120962 -7.220518 11.192989 -11.131435 
